HIERARCHY
ROOT Hips
{
	OFFSET 0.000000 0.000000 0.000000
	CHANNELS 6 Xposition Yposition Zposition Zrotation Yrotation Xrotation 
	JOINT LeftUpLeg_virtual
	{
		OFFSET 0.000000 0.000000 0.000000
		CHANNELS 3 Zrotation Yrotation Xrotation
		JOINT LeftUpLeg
		{
			OFFSET 10.205400 -3.823500 0.155100
			CHANNELS 3 Zrotation Yrotation Xrotation
			JOINT LeftLeg
			{
				OFFSET 0.708757 -12.982077 0.567790
				CHANNELS 3 Zrotation Yrotation Xrotation
				JOINT LeftFoot
				{
					OFFSET -0.708756 -10.717838 -2.184338
					CHANNELS 3 Zrotation Yrotation Xrotation
					JOINT LeftToeBase
					{
						OFFSET 0.108149 -7.191104 7.560241
						CHANNELS 3 Zrotation Yrotation Xrotation
						End Site
						{
							OFFSET 0.000000 0.000000 0.000000
						}
					}
				}
			}
		}
	}
	JOINT RightUpLeg_virtual
	{
		OFFSET 0.000000 0.000000 0.000000
		CHANNELS 3 Zrotation Yrotation Xrotation
		JOINT RightUpLeg
		{
			OFFSET -10.205400 -3.823500 0.005500
			CHANNELS 3 Zrotation Yrotation Xrotation
			JOINT RightLeg
			{
				OFFSET -0.708756 -12.982134 0.610632
				CHANNELS 3 Zrotation Yrotation Xrotation
				JOINT RightFoot
				{
					OFFSET 0.708754 -10.717769 -1.945823
					CHANNELS 3 Zrotation Yrotation Xrotation
					JOINT RightToeBase
					{
						OFFSET -0.108140 -7.191069 7.372968
						CHANNELS 3 Zrotation Yrotation Xrotation
						End Site
						{
							OFFSET 0.000000 0.000000 0.000000
						}
					}
				}
			}
		}
	}
	JOINT Spine_virtual
	{
		OFFSET 0.000000 0.000000 0.000000
		CHANNELS 3 Zrotation Yrotation Xrotation
		JOINT Spine
		{
			OFFSET 0.000000 6.876099 0.125700
			CHANNELS 3 Zrotation Yrotation Xrotation
			JOINT Spine1
			{
				OFFSET 0.000000 8.022060 0.146608
				CHANNELS 3 Zrotation Yrotation Xrotation
				JOINT Spine2
				{
					OFFSET 0.000000 9.168068 0.167552
					CHANNELS 3 Zrotation Yrotation Xrotation
					JOINT Neck_virtual
					{
						OFFSET 0.000000 0.000000 0.000000
						CHANNELS 3 Zrotation Yrotation Xrotation
						JOINT Neck
						{
							OFFSET 0.000000 10.314075 0.188496
							CHANNELS 3 Zrotation Yrotation Xrotation
							JOINT Head
							{
								OFFSET 0.000000 7.643700 -2.377400
								CHANNELS 3 Zrotation Yrotation Xrotation
								End Site
								{
									OFFSET 0.000000 0.000000 0.000000
								}
							}
						}
					}
					JOINT LeftShoulder_virtual
					{
						OFFSET 0.000000 0.000000 0.000000
						CHANNELS 3 Zrotation Yrotation Xrotation
						JOINT LeftShoulder
						{
							OFFSET 4.392200 8.824978 0.174984
							CHANNELS 3 Zrotation Yrotation Xrotation
							JOINT LeftArm
							{
								OFFSET 8.771219 -2.981674 -0.026999
								CHANNELS 3 Zrotation Yrotation Xrotation
								JOINT LeftForeArm
								{
									OFFSET 8.512804 0.000000 -0.000000
									CHANNELS 3 Zrotation Yrotation Xrotation
									JOINT LeftHand
									{
										OFFSET 18.484802 0.000000 -0.000000
										CHANNELS 3 Zrotation Yrotation Xrotation
										End Site
										{
											OFFSET 0.000000 0.000000 0.000000
										}
									}
								}
							}
						}
					}
					JOINT RightShoulder_virtual
					{
						OFFSET 0.000000 0.000000 0.000000
						CHANNELS 3 Zrotation Yrotation Xrotation
						JOINT RightShoulder
						{
							OFFSET -4.392200 8.824993 0.141379
							CHANNELS 3 Zrotation Yrotation Xrotation
							JOINT RightArm
							{
								OFFSET -8.771282 -2.981682 -0.094208
								CHANNELS 3 Zrotation Yrotation Xrotation
								JOINT RightForeArm
								{
									OFFSET -8.494598 0.000000 0.000000
									CHANNELS 3 Zrotation Yrotation Xrotation
									JOINT RightHand
									{
										OFFSET -18.483803 0.000000 0.000001
										CHANNELS 3 Zrotation Yrotation Xrotation
										End Site
										{
											OFFSET 0.000000 0.000000 0.000000
										}
									}
								}
							}
						}
					}
				}
			}
		}
	}
}
MOTION
Frames: 4
Frame Time: 0.033333
-11.024948 3.991344 68.727219 -179.907538 9.946424 -179.958969 13.096289 -5.112228 -47.592755 -20.891390 5.938431 -103.710016 34.518676 -9.981668 107.241176 -1.760584 -14.284694 21.292672 0.000000 0.000000 0.000000 4.305417 7.087178 -47.020740 21.440660 6.476799 -92.998244 -14.708331 -5.108805 81.022771 -2.486680 23.398480 24.607467 0.000000 0.000000 0.000000 0.518281 4.226202 -23.141646 -1.734855 -7.569892 -5.384090 -0.226322 -0.895442 7.503551 -0.008412 -0.018687 0.021788 -1.405304 0.477249 16.224139 -1.294013 -3.859428 33.464109 0.000000 0.000000 0.000000 2.893552 1.365147 10.290184 -17.988459 -2.708367 11.658045 -47.098543 65.719302 37.122283 -2.720922 -33.271515 13.902680 0.000000 0.000000 0.000000 -3.548536 2.782079 9.810698 24.320195 5.441811 8.781001 28.150519 -63.625056 58.275509 -11.463332 42.918843 -6.230211 0.000000 0.000000 0.000000 
-10.930486 4.002397 68.508789 -179.881269 9.730830 -179.947440 13.089566 -5.547840 -46.719467 -21.932021 4.753093 -105.314455 34.850313 -9.454006 109.698774 -2.324082 -15.056090 21.350277 0.000000 0.000000 0.000000 4.402480 6.695272 -46.156219 22.314887 7.039554 -94.313738 -15.158686 -4.895737 85.738914 -3.230436 24.536422 24.392316 0.000000 0.000000 0.000000 0.501359 3.909542 -22.381500 -1.739874 -7.332973 -4.735385 -0.165152 -0.855044 7.597236 0.023038 0.008892 0.021975 -1.295761 0.688469 16.221004 -1.108986 -3.664943 32.721640 0.000000 0.000000 0.000000 2.974065 1.456265 10.376287 -18.316870 -2.573862 11.615101 -45.853724 65.357745 37.561734 -2.709000 -33.010659 13.860536 0.000000 0.000000 0.000000 -3.537433 2.858144 9.813594 24.611984 5.854045 9.032477 27.876232 -62.591628 59.595402 -11.589478 42.859212 -6.258924 0.000000 0.000000 0.000000 
-10.810311 4.012938 68.354836 -179.970581 9.335666 -179.967124 13.085468 -6.032256 -45.792167 -22.458007 3.782548 -106.735544 35.238254 -9.257423 111.442241 -2.752968 -15.663885 21.347784 0.000000 0.000000 0.000000 4.523862 6.168045 -45.169895 23.020540 7.583154 -95.722014 -15.583903 -4.732156 90.013929 -3.742156 25.610223 24.512388 0.000000 0.000000 0.000000 0.505473 3.513271 -21.406301 -1.850665 -7.121320 -4.122966 -0.105120 -0.835440 7.651802 -0.018292 -0.004560 -0.005402 -1.226554 0.531757 16.219438 -0.989843 -3.523051 32.012444 0.000000 0.000000 0.000000 3.119392 1.396911 10.379190 -18.532987 -2.332833 11.666307 -44.838085 64.870528 37.754608 -2.667466 -32.768843 13.803443 0.000000 0.000000 0.000000 -3.444296 2.899318 9.854397 24.913392 6.327624 9.143482 27.809426 -61.469681 60.800029 -11.632359 42.694966 -6.243035 0.000000 0.000000 0.000000 
-10.711044 4.034960 68.251144 -179.976946 9.025148 -179.984678 13.255813 -6.261089 -44.751290 -22.542976 3.074979 -107.885946 35.659106 -9.356557 112.519382 -3.126257 -16.150674 21.244728 0.000000 0.000000 0.000000 4.847550 5.788810 -44.067397 23.508673 7.979720 -97.238651 -16.032517 -4.593725 93.674665 -4.046879 26.518899 25.038517 0.000000 0.000000 0.000000 0.647225 3.208666 -20.199337 -1.951749 -6.899510 -3.641861 -0.068428 -0.784865 7.682435 -0.017759 0.007823 -0.006728 -1.138731 0.541430 16.095515 -0.826641 -3.319868 31.345746 0.000000 0.000000 0.000000 3.211587 1.379696 10.404821 -18.790323 -2.246722 11.600937 -43.820373 64.291970 38.157665 -2.662045 -32.570737 13.711321 0.000000 0.000000 0.000000 -3.401835 2.814332 9.845788 25.222827 6.767022 9.267429 28.305576 -60.367671 61.338302 -11.583184 42.363897 -6.142559 0.000000 0.000000 0.000000 
